#N canvas 126 31 1307 839 12;
#X obj 266 282 osc~;
#X obj 348 654 *~;
#X obj 622 82 noise~;
#X obj 372 783 *~;
#X msg 411 746 0;
#X msg 451 746 0.25;
#X msg 501 746 0.5;
#X msg 542 746 1;
#X obj 372 816 dac~;
#X obj 366 528 vsl 15 100 0 1 0 1 empty empty empty 0 -9 0 10 -262144
-1 -1 3700 1;
#X obj 518 654 *~;
#X obj 536 528 vsl 15 100 0 1 0 1 empty empty empty 0 -9 0 10 -262144
-1 -1 0 1;
#X obj 578 654 *~;
#X obj 596 528 vsl 15 100 0 1 0 1 empty empty empty 0 -9 0 10 -262144
-1 -1 0 1;
#X floatatom 266 59 8 0 0 0 - - -;
#X obj 420 655 *~;
#X obj 438 529 vsl 15 100 0 1 0 1 empty empty empty 0 -9 0 10 -262144
-1 -1 5300 1;
#X obj 411 284 phasor~;
#X floatatom 397 190 5 0 0 0 - - -;
#X obj 379 218 / 2;
#N canvas 0 23 382 477 tuned_bpf 0;
#X obj 41 328 bp~;
#X obj 111 92 vsl 15 100 0.5 1000 1 0 empty empty Q 0 -9 0 10 -262144
-1 -1 3902 1;
#X floatatom 111 201 5 0 0 0 - - -;
#X floatatom 69 201 5 0 0 0 - - -;
#X obj 50 274 * 2;
#X obj 41 351 outlet~;
#X obj 41 20 inlet~;
#X obj 69 93 vsl 15 100 0.25 20 0 0 empty empty mult 0 -9 0 10 -262144
-1 -1 229 1;
#X obj 112 20 inlet;
#X obj 50 235 t b;
#X obj 191 194 t f;
#X obj 182 20 inlet;
#X obj 242 20 inlet;
#X connect 0 0 5 0;
#X connect 1 0 2 0;
#X connect 2 0 0 2;
#X connect 3 0 4 1;
#X connect 3 0 9 0;
#X connect 4 0 0 1;
#X connect 6 0 0 0;
#X connect 7 0 10 0;
#X connect 8 0 4 0;
#X connect 9 0 4 0;
#X connect 10 0 3 0;
#X connect 11 0 7 0;
#X connect 12 0 1 0;
#X coords 0 -1 1 1 95 165 1 60 60;
#X restore 776 238 pd tuned_bpf;
#X obj 638 654 *~;
#X obj 656 528 vsl 15 100 0 1 0 1 empty empty empty 0 -9 0 10 -262144
-1 -1 7700 1;
#X obj 834 202 unpack f f;
#N canvas 0 23 382 477 tuned_bpf 0;
#X obj 41 328 bp~;
#X obj 111 92 vsl 15 100 0.5 1000 1 0 empty empty Q 0 -9 0 10 -262144
-1 -1 2334 1;
#X floatatom 111 201 5 0 0 0 - - -;
#X floatatom 69 201 5 0 0 0 - - -;
#X obj 50 274 * 2;
#X obj 41 351 outlet~;
#X obj 41 20 inlet~;
#X obj 69 93 vsl 15 100 0.25 20 0 0 empty empty mult 0 -9 0 10 -262144
-1 -1 0 1;
#X obj 112 20 inlet;
#X obj 50 235 t b;
#X obj 191 194 t f;
#X obj 182 20 inlet;
#X obj 242 20 inlet;
#X connect 0 0 5 0;
#X connect 1 0 2 0;
#X connect 2 0 0 2;
#X connect 3 0 4 1;
#X connect 3 0 9 0;
#X connect 4 0 0 1;
#X connect 6 0 0 0;
#X connect 7 0 10 0;
#X connect 8 0 4 0;
#X connect 9 0 4 0;
#X connect 10 0 3 0;
#X connect 11 0 7 0;
#X connect 12 0 1 0;
#X coords 0 -1 1 1 95 165 1 60 60;
#X restore 646 238 pd tuned_bpf;
#X obj 704 202 unpack f f;
#N canvas 0 23 382 477 tuned_bpf 0;
#X obj 41 328 bp~;
#X obj 111 92 vsl 15 100 0.5 1000 1 0 empty empty Q 0 -9 0 10 -262144
-1 -1 1806 1;
#X floatatom 111 201 5 0 0 0 - - -;
#X floatatom 69 201 5 0 0 0 - - -;
#X obj 50 274 * 2;
#X obj 41 351 outlet~;
#X obj 41 20 inlet~;
#X obj 69 93 vsl 15 100 0.25 20 0 0 empty empty mult 0 -9 0 10 -262144
-1 -1 125 1;
#X obj 112 20 inlet;
#X obj 50 235 t b;
#X obj 191 194 t f;
#X obj 182 20 inlet;
#X obj 242 20 inlet;
#X connect 0 0 5 0;
#X connect 1 0 2 0;
#X connect 2 0 0 2;
#X connect 3 0 4 1;
#X connect 3 0 9 0;
#X connect 4 0 0 1;
#X connect 6 0 0 0;
#X connect 7 0 10 0;
#X connect 8 0 4 0;
#X connect 9 0 4 0;
#X connect 10 0 3 0;
#X connect 11 0 7 0;
#X connect 12 0 1 0;
#X coords 0 -1 1 1 95 165 1 60 60;
#X restore 516 238 pd tuned_bpf;
#X obj 574 202 unpack f f;
#N canvas 0 23 382 477 tuned_bpf 0;
#X obj 41 328 bp~;
#X obj 111 92 vsl 15 100 0.5 1000 1 0 empty empty Q 0 -9 0 10 -262144
-1 -1 4805 1;
#X floatatom 111 201 5 0 0 0 - - -;
#X floatatom 69 201 5 0 0 0 - - -;
#X obj 50 274 * 2;
#X obj 41 351 outlet~;
#X obj 41 20 inlet~;
#X obj 69 93 vsl 15 100 0.25 20 0 0 empty empty mult 0 -9 0 10 -262144
-1 -1 1768 1;
#X obj 112 20 inlet;
#X obj 50 235 t b;
#X obj 191 194 t f;
#X obj 182 20 inlet;
#X obj 242 20 inlet;
#X connect 0 0 5 0;
#X connect 1 0 2 0;
#X connect 2 0 0 2;
#X connect 3 0 4 1;
#X connect 3 0 9 0;
#X connect 4 0 0 1;
#X connect 6 0 0 0;
#X connect 7 0 10 0;
#X connect 8 0 4 0;
#X connect 9 0 4 0;
#X connect 10 0 3 0;
#X connect 11 0 7 0;
#X connect 12 0 1 0;
#X coords 0 -1 1 1 95 165 1 60 60;
#X restore 916 238 pd tuned_bpf;
#X obj 974 202 unpack f f;
#X obj 718 654 *~;
#X obj 736 528 vsl 15 100 0 1 0 1 empty empty empty 0 -9 0 10 -262144
-1 -1 8300 1;
#X obj 756 80 loadbang;
#X msg 574 179 0.5 2;
#X msg 704 179 2 3;
#X msg 834 179 4 10;
#X msg 974 179 8 20;
#N canvas 0 23 382 477 tuned_bpf 0;
#X obj 41 328 bp~;
#X obj 111 92 vsl 15 100 0.5 1000 1 0 empty empty Q 0 -9 0 10 -262144
-1 -1 3611 1;
#X floatatom 111 201 5 0 0 0 - - -;
#X floatatom 69 201 5 0 0 0 - - -;
#X obj 50 274 * 2;
#X obj 41 351 outlet~;
#X obj 41 20 inlet~;
#X obj 69 93 vsl 15 100 0.25 20 0 0 empty empty mult 0 -9 0 10 -262144
-1 -1 877 1;
#X obj 112 20 inlet;
#X obj 50 235 t b;
#X obj 191 194 t f;
#X obj 182 20 inlet;
#X obj 242 20 inlet;
#X connect 0 0 5 0;
#X connect 1 0 2 0;
#X connect 2 0 0 2;
#X connect 3 0 4 1;
#X connect 3 0 9 0;
#X connect 4 0 0 1;
#X connect 6 0 0 0;
#X connect 7 0 10 0;
#X connect 8 0 4 0;
#X connect 9 0 4 0;
#X connect 10 0 3 0;
#X connect 11 0 7 0;
#X connect 12 0 1 0;
#X coords 0 -1 1 1 95 165 1 60 60;
#X restore 128 436 pd tuned_bpf;
#X obj 186 400 unpack f f;
#X msg 186 377 2 8;
#X obj 69 37 tgl 15 0 empty empty empty 17 7 0 10 -262144 -1 -1 1 1
;
#X floatatom 69 123 5 0 0 0 - - -;
#X floatatom 69 218 5 0 0 0 - - -;
#X obj 69 145 +;
#X obj 69 279 cos;
#X floatatom 69 302 5 0 0 0 - - -;
#X floatatom 129 51 5 0 0 0 - - -;
#N canvas 0 23 584 480 floatingmetro 0;
#X obj 250 41 loadbang;
#X obj 60 312 metro;
#X obj 60 332 float;
#X obj 110 332 + 1;
#X floatatom 60 353 5 0 0 0 - - -;
#X obj 60 373 mod 16;
#X floatatom 60 394 5 0 0 0 - - -;
#X obj 223 224 cos;
#X obj 223 85 metro;
#X floatatom 169 264 8 0 0 0 - - -;
#X obj 223 107 float;
#X obj 277 108 + 1;
#X floatatom 223 128 5 0 0 0 - - -;
#X floatatom 188 147 5 0 0 0 - - -;
#N canvas 0 22 450 278 (subpatch) 0;
#X array \$0-metroval 50 float 3;
#A 0 120 119.606 118.431 116.492 113.821 110.46 106.462 101.888 96.8129
91.3149 85.4811 79.4035 73.1777 66.9018 60.6747 54.5946 48.7572 43.2544
38.173 33.593 29.5866 26.2169 23.537 21.5891 20.4039 20.0001 20.384
21.5495 23.4784 26.1402 29.4931 33.4841 38.0503 43.12 48.6131 54.4432
60.5183 66.7429 73.0187 79.247 85.3296 91.1707 96.6783 101.766 106.352
110.366 113.745 116.434 118.391 119.586;
#X coords 0 300 50 0 200 140 1 0 0;
#X restore 347 40 graph;
#X obj 254 291 tabwrite \$0-metroval;
#X obj 203 86 bng 15 250 50 0 empty empty empty 17 7 0 10 -262144 -1
-1;
#X obj 223 166 f;
#X floatatom 188 167 5 0 0 0 - - -;
#X floatatom 188 186 5 0 0 0 - - -;
#X obj 223 205 * 6.28;
#X floatatom 188 205 5 0 0 0 - - -;
#X obj 223 265 * 50;
#X obj 223 245 + 1.4;
#X obj 223 147 mod 50;
#X obj 223 186 / 50;
#X msg 250 63 100;
#X obj 60 413 outlet;
#X obj 60 19 inlet;
#X obj 169 413 outlet;
#X connect 0 0 26 0;
#X connect 1 0 2 0;
#X connect 2 0 3 0;
#X connect 2 0 4 0;
#X connect 3 0 2 1;
#X connect 4 0 5 0;
#X connect 5 0 6 0;
#X connect 6 0 27 0;
#X connect 7 0 23 0;
#X connect 8 0 10 0;
#X connect 8 0 16 0;
#X connect 9 0 29 0;
#X connect 10 0 11 0;
#X connect 10 0 12 0;
#X connect 11 0 10 1;
#X connect 12 0 24 0;
#X connect 17 0 18 0;
#X connect 17 0 25 0;
#X connect 20 0 21 0;
#X connect 20 0 7 0;
#X connect 22 0 9 0;
#X connect 22 0 1 1;
#X connect 22 0 15 0;
#X connect 23 0 22 0;
#X connect 24 0 13 0;
#X connect 24 0 15 1;
#X connect 24 0 17 0;
#X connect 25 0 19 0;
#X connect 25 0 20 0;
#X connect 26 0 8 1;
#X connect 28 0 8 0;
#X connect 28 0 1 0;
#X restore 1064 199 pd floatingmetro;
#X obj 1064 174 tgl 15 0 empty empty empty 17 7 0 10 -262144 -1 -1
1 1;
#X obj 1064 231 t f b b b;
#X floatatom 1064 282 8 0 0 0 - - -;
#X floatatom 1168 281 8 0 0 0 - - -;
#X obj 1170 332 / 100;
#X floatatom 1170 355 5 0 0 0 - - -;
#X obj 1064 414 + 300;
#X obj 1064 354 / 10;
#X floatatom 1089 318 5 0 0 0 - - -;
#X obj 69 416 + 300;
#X floatatom 87 350 5 0 0 0 - - -;
#X obj 69 386 * 2;
#X floatatom 152 75 0 0 0 0 - - -;
#X obj 152 127 * 6.28319;
#X obj 152 101 / 360;
#X floatatom 153 186 8 0 0 0 - - -;
#X floatatom 456 411 5 0 0 0 - - -;
#X obj 366 470 / 8;
#X floatatom 384 441 5 0 0 0 - - -;
#X obj 1171 398 cos;
#X floatatom 1171 421 5 0 0 0 - - -;
#X obj 70 463 +;
#X floatatom 794 454 5 0 0 0 - - -;
#X obj 1249 386 * 4;
#X floatatom 319 202 5 0 0 0 - - -;
#X floatatom 1189 118 5 0 0 0 - - -;
#X floatatom 951 55 5 0 0 0 - - -;
#X obj 1212 387 * 3;
#X obj 898 82 pipe 300;
#X obj 69 183 mod 360;
#X obj 438 440 / 4;
#X obj 762 483 * 1.5;
#X floatatom 729 422 5 0 0 0 - - -;
#X obj 683 449 pipe 50;
#X obj 1136 145 pipe 600;
#X obj 266 229 pipe 500;
#X obj 448 333 abs;
#X msg 454 47 1;
#X obj 130 658 freeverb~;
#X msg 105 801 roomsize \$1;
#X msg 25 802 damping \$1;
#X msg 21 723 wet \$1;
#X msg 103 720 dry \$1;
#X obj 108 774 hsl 60 15 0 1 0 1 empty empty empty -2 -8 0 10 -262144
-1 -1 3900 1;
#X obj 28 774 hsl 60 15 0 1 0 1 empty empty empty -2 -8 0 10 -262144
-1 -1 600 1;
#X obj 24 697 hsl 60 15 0 1 0 1 empty empty empty -2 -8 0 10 -262144
-1 -1 2100 1;
#X obj 106 696 hsl 60 15 0 1 0 1 empty empty empty -2 -8 0 10 -262144
-1 -1 700 1;
#N canvas 0 23 500 308 Hann-window 0;
#N canvas 0 0 450 300 (subpatch) 0;
#X array \$0-hann 512 float 0;
#X coords 0 1 511 0 200 120 1;
#X restore 263 129 graph;
#X msg 141 143 0;
#X obj 35 192 osc~;
#X obj 35 144 samplerate~;
#X obj 35 215 *~ -0.5;
#X obj 35 238 +~ 0.5;
#X obj 27 263 tabwrite~ \$0-hann;
#X text 249 121 1;
#X text 242 239 0;
#X text 258 252 0;
#X obj 35 168 / 512;
#X obj 27 121 bng 15 250 50 0 empty empty empty 0 -6 0 8 -262144 -1
-1;
#X text 306 101 Hann window;
#X text 83 190 period 512;
#X text 60 95 recalculate Hann;
#X text 95 110 window table;
#X obj 27 26 loadbang;
#X msg 49 59 \; pd dsp 1;
#X text 444 255 511;
#X connect 1 0 2 1;
#X connect 2 0 4 0;
#X connect 3 0 10 0;
#X connect 4 0 5 0;
#X connect 5 0 6 0;
#X connect 10 0 2 0;
#X connect 11 0 3 0;
#X connect 11 0 1 0;
#X connect 11 0 6 0;
#X connect 16 0 11 0;
#X connect 16 0 17 0;
#X restore 1129 22 pd Hann-window;
#N canvas 0 0 450 300 (subpatch) 0;
#X array \$0-gain 256 float 1;
#A 0 0.858847 0.792032 0.318596 0.849043 0.816156 -0.0506791 0.835233
0.834825 0.128693 0.816694 0.848745 -0.0506791 0.792717 0.858642 -0.00695787
0.762697 0.865179 0.726221 -0.0506791 0.868884 0.683133 0.8701 -0.0509612
0.633597 0.868945 0.45146 0.578124 0.865306 0.028824 0.517574 0.858847
0.45146 0.453133 0.849043 0.186475 0.386255 0.835233 0.318596 0.316885
0.816694 0.251926 0.792717 0.45146 0.188043 0.762697 0.865179 0.128693
0.726221 0.63226 0.0754912 0.683133 0.865179 0.0298711 0.633597 0.761853
-0.00695787 0.578124 -0.0340386 0.816156 0.517574 -0.0506791 0.453133
0.848745 -0.0564635 0.386255 0.683133 -0.0509612 0.318596 0.868884
-0.034592 0.251926 0.683133 -0.00776866 0.188043 0.865306 0.028824
0.128693 0.0742349 0.188043 0.0754912 0.127261 0.0298711 0.835233 0.186475
-0.00695787 0.816694 0.250263 -0.0340386 0.792717 0.316885 -0.0506791
0.762697 0.384541 -0.0564635 -0.0506791 0.45146 -0.0509612 0.515983
0.0742349 -0.034592 0.576647 -0.00776866 0.186475 0.63226 0.028824
0.316885 0.681955 0.0742349 0.45146 0.72521 0.127261 0.316885 0.761853
0.186475 0.45146 0.792032 0.250263 0.816156 0.761853 0.316885 0.834825
0.384541 0.816156 0.848745 0.45146 0.848745 0.858642 0.515983 0.816156
0.865179 0.576647 0.848745 0.868884 0.63226 0.868945 0.8701 0.681955
0.868945 0.858847 0.72521 0.865306 0.761853 0.868884 0.858847 0.792032
0.792717 0.849043 0.816156 0.816694 0.835233 0.834825 0.762697 0.816694
0.848745 0.578124 0.792717 0.858642 0.762697 0.453133 0.865179 0.726221
0.868884 0.633597 0.683133 0.8701 0.188043 0.633597 -0.0506791 0.188043
0.578124 -0.0564635 0.0754912 0.517574 -0.0509612 -0.0340386 0.453133
-0.034592 0.386255 -0.0564635 -0.00776866 0.318596 0.028824 -0.0340386
0.251926 0.0742349 0.028824 0.188043 0.127261 0.0742349 0.128693 0.186475
0.186475 0.0754912 0.250263 0.316885 0.0298711 0.384541 -0.00695787
0.45146 0.515983 -0.0340386 0.576647 0.316885 -0.0506791 0.63226 0.384541
-0.0564635 0.576647 0.45146 -0.0509612 0.761853 0.515983 -0.034592
0.576647 0.816156 -0.00776866 0.63226 0.028824 0.848745 0.681955 0.0742349
0.8701 0.72521 0.127261 0.868884 0.761853 0.186475 0.8701 0.792032
0.250263 0.865306 0.816156 0.316885 0.834825 0.849043 0.384541 0.848745
0.45146 0.816694 0.858642 0.515983 0.578124 0.865179 0.576647 0.726221
0.868884 0.63226 0.578124 0.8701 0.681955 0.578124 0.868945 0.72521
0.865306 0.453133 0.761853;
#X coords 0 1 255 -0.01 512 100 1 0 0;
#X restore 771 695 graph;
#X text 755 784 0;
#X text 755 685 1;
#X text 768 794 0;
#X text 1265 797 22K;
#X text 984 670 GAIN;
#X msg 1217 640 const 0;
#X obj 1217 669 s \$0-gain;
#N canvas 0 23 582 468 filter 0;
#X obj 75 36 inlet~;
#X obj 75 139 rfft~;
#X obj 326 26 block~ 512 4;
#X obj 75 94 *~;
#X obj 93 68 tabreceive~ \$0-hann;
#X obj 75 262 *~;
#X obj 125 108 tabreceive~ \$0-gain;
#X obj 125 141 *~;
#X obj 125 174 *~;
#X text 295 65 Heavily based on I03.resynthesis.pd;
#X obj 125 217 /~ 768;
#X obj 107 262 *~;
#X obj 75 310 rifft~;
#X obj 75 374 *~;
#X obj 93 348 tabreceive~ \$0-hann;
#X obj 75 397 outlet~;
#X connect 0 0 3 0;
#X connect 1 0 5 0;
#X connect 1 1 11 0;
#X connect 3 0 1 0;
#X connect 4 0 3 1;
#X connect 5 0 12 0;
#X connect 6 0 7 0;
#X connect 6 0 7 1;
#X connect 7 0 8 0;
#X connect 7 0 8 1;
#X connect 8 0 10 0;
#X connect 10 0 5 1;
#X connect 10 0 11 1;
#X connect 11 0 12 1;
#X connect 12 0 13 0;
#X connect 13 0 15 0;
#X connect 14 0 13 1;
#X restore 304 407 pd filter;
#N canvas 0 23 582 468 filter 0;
#X obj 75 36 inlet~;
#X obj 75 139 rfft~;
#X obj 326 26 block~ 512 4;
#X obj 75 94 *~;
#X obj 93 68 tabreceive~ \$0-hann;
#X obj 75 262 *~;
#X obj 125 108 tabreceive~ \$0-gain;
#X obj 125 141 *~;
#X obj 125 174 *~;
#X text 295 65 Heavily based on I03.resynthesis.pd;
#X obj 125 217 /~ 768;
#X obj 107 262 *~;
#X obj 75 310 rifft~;
#X obj 75 374 *~;
#X obj 93 348 tabreceive~ \$0-hann;
#X obj 75 397 outlet~;
#X connect 0 0 3 0;
#X connect 1 0 5 0;
#X connect 1 1 11 0;
#X connect 3 0 1 0;
#X connect 4 0 3 1;
#X connect 5 0 12 0;
#X connect 6 0 7 0;
#X connect 6 0 7 1;
#X connect 7 0 8 0;
#X connect 7 0 8 1;
#X connect 8 0 10 0;
#X connect 10 0 5 1;
#X connect 10 0 11 1;
#X connect 11 0 12 1;
#X connect 12 0 13 0;
#X connect 13 0 15 0;
#X connect 14 0 13 1;
#X restore 254 568 pd filter;
#N canvas 0 23 582 468 filter 0;
#X obj 75 36 inlet~;
#X obj 75 139 rfft~;
#X obj 326 26 block~ 512 4;
#X obj 75 94 *~;
#X obj 93 68 tabreceive~ \$0-hann;
#X obj 75 262 *~;
#X obj 125 108 tabreceive~ \$0-gain;
#X obj 125 141 *~;
#X obj 125 174 *~;
#X text 295 65 Heavily based on I03.resynthesis.pd;
#X obj 125 217 /~ 768;
#X obj 107 262 *~;
#X obj 75 310 rifft~;
#X obj 75 374 *~;
#X obj 93 348 tabreceive~ \$0-hann;
#X obj 75 397 outlet~;
#X connect 0 0 3 0;
#X connect 1 0 5 0;
#X connect 1 1 11 0;
#X connect 3 0 1 0;
#X connect 4 0 3 1;
#X connect 5 0 12 0;
#X connect 6 0 7 0;
#X connect 6 0 7 1;
#X connect 7 0 8 0;
#X connect 7 0 8 1;
#X connect 8 0 10 0;
#X connect 10 0 5 1;
#X connect 10 0 11 1;
#X connect 11 0 12 1;
#X connect 12 0 13 0;
#X connect 13 0 15 0;
#X connect 14 0 13 1;
#X restore 815 557 pd filter;
#X floatatom 959 497 5 0 0 0 - - -;
#X obj 912 602 tabwrite \$0-gain;
#X obj 1154 499 - 0.4;
#X obj 1154 522 * 1.5;
#X obj 959 474 mod 256;
#N canvas 0 23 582 468 filter 0;
#X obj 75 36 inlet~;
#X obj 75 139 rfft~;
#X obj 326 26 block~ 512 4;
#X obj 75 94 *~;
#X obj 93 68 tabreceive~ \$0-hann;
#X obj 75 262 *~;
#X obj 125 108 tabreceive~ \$0-gain;
#X obj 125 141 *~;
#X obj 125 174 *~;
#X text 295 65 Heavily based on I03.resynthesis.pd;
#X obj 125 217 /~ 768;
#X obj 107 262 *~;
#X obj 75 310 rifft~;
#X obj 75 374 *~;
#X obj 93 348 tabreceive~ \$0-hann;
#X obj 75 397 outlet~;
#X connect 0 0 3 0;
#X connect 1 0 5 0;
#X connect 1 1 11 0;
#X connect 3 0 1 0;
#X connect 4 0 3 1;
#X connect 5 0 12 0;
#X connect 6 0 7 0;
#X connect 6 0 7 1;
#X connect 7 0 8 0;
#X connect 7 0 8 1;
#X connect 8 0 10 0;
#X connect 10 0 5 1;
#X connect 10 0 11 1;
#X connect 11 0 12 1;
#X connect 12 0 13 0;
#X connect 13 0 15 0;
#X connect 14 0 13 1;
#X restore 687 146 pd filter;
#X obj 959 428 +;
#X obj 69 80 metro 50;
#X connect 0 0 104 0;
#X connect 1 0 86 0;
#X connect 1 0 86 1;
#X connect 2 0 24 0;
#X connect 2 0 26 0;
#X connect 2 0 28 0;
#X connect 2 0 112 0;
#X connect 3 0 8 0;
#X connect 3 0 8 1;
#X connect 4 0 3 1;
#X connect 5 0 3 1;
#X connect 6 0 3 1;
#X connect 7 0 3 1;
#X connect 9 0 1 1;
#X connect 10 0 3 0;
#X connect 11 0 10 1;
#X connect 12 0 3 0;
#X connect 13 0 12 1;
#X connect 14 0 19 0;
#X connect 14 0 20 1;
#X connect 14 0 24 1;
#X connect 14 0 26 1;
#X connect 14 0 28 1;
#X connect 14 0 37 1;
#X connect 14 0 83 0;
#X connect 15 0 3 0;
#X connect 16 0 15 1;
#X connect 17 0 37 0;
#X connect 18 0 19 1;
#X connect 19 0 17 0;
#X connect 20 0 21 0;
#X connect 21 0 3 0;
#X connect 22 0 21 1;
#X connect 23 0 20 2;
#X connect 23 1 20 3;
#X connect 24 0 12 0;
#X connect 25 0 24 2;
#X connect 25 1 24 3;
#X connect 26 0 10 0;
#X connect 27 0 26 2;
#X connect 27 1 26 3;
#X connect 28 0 106 0;
#X connect 29 0 28 2;
#X connect 29 1 28 3;
#X connect 30 0 3 0;
#X connect 31 0 30 1;
#X connect 32 0 33 0;
#X connect 32 0 34 0;
#X connect 32 0 35 0;
#X connect 32 0 36 0;
#X connect 32 0 5 0;
#X connect 32 0 39 0;
#X connect 32 0 85 0;
#X connect 33 0 27 0;
#X connect 34 0 25 0;
#X connect 35 0 23 0;
#X connect 36 0 29 0;
#X connect 37 0 105 0;
#X connect 38 0 37 2;
#X connect 38 1 37 3;
#X connect 39 0 38 0;
#X connect 40 0 114 0;
#X connect 41 0 43 0;
#X connect 41 0 113 0;
#X connect 42 0 43 1;
#X connect 42 0 60 0;
#X connect 43 0 77 0;
#X connect 44 0 45 0;
#X connect 45 0 59 0;
#X connect 46 0 114 1;
#X connect 47 0 49 0;
#X connect 47 1 51 0;
#X connect 48 0 47 0;
#X connect 49 0 50 0;
#X connect 50 0 55 0;
#X connect 51 0 52 0;
#X connect 52 0 53 0;
#X connect 53 0 24 2;
#X connect 53 0 67 0;
#X connect 53 0 75 0;
#X connect 55 0 54 0;
#X connect 56 0 55 1;
#X connect 57 0 69 0;
#X connect 58 0 59 1;
#X connect 59 0 57 0;
#X connect 60 0 62 0;
#X connect 61 0 63 0;
#X connect 62 0 61 0;
#X connect 63 0 44 0;
#X connect 64 0 78 1;
#X connect 65 0 9 0;
#X connect 66 0 65 1;
#X connect 67 0 68 0;
#X connect 68 0 71 0;
#X connect 68 0 109 0;
#X connect 69 0 14 0;
#X connect 70 0 79 1;
#X connect 71 0 82 0;
#X connect 72 0 83 1;
#X connect 73 0 82 1;
#X connect 74 0 76 1;
#X connect 75 0 76 0;
#X connect 76 0 20 2;
#X connect 77 0 42 0;
#X connect 78 0 16 0;
#X connect 79 0 31 0;
#X connect 80 0 81 1;
#X connect 81 0 79 0;
#X connect 82 0 28 2;
#X connect 83 0 0 0;
#X connect 84 0 26 2;
#X connect 85 0 41 0;
#X connect 86 0 3 0;
#X connect 86 1 3 0;
#X connect 87 0 86 0;
#X connect 88 0 86 0;
#X connect 89 0 86 0;
#X connect 90 0 86 0;
#X connect 91 0 87 0;
#X connect 92 0 88 0;
#X connect 93 0 89 0;
#X connect 94 0 90 0;
#X connect 102 0 103 0;
#X connect 104 0 1 0;
#X connect 105 0 15 0;
#X connect 106 0 30 0;
#X connect 107 0 108 1;
#X connect 107 0 113 1;
#X connect 109 0 110 0;
#X connect 110 0 108 0;
#X connect 111 0 107 0;
#X connect 112 0 20 0;
#X connect 113 0 111 0;
#X connect 114 0 41 0;
